<?xml version="1.0" encoding="UTF-8" standalone="no"?>
<svg
   xmlns:dc="http://purl.org/dc/elements/1.1/"
   xmlns:cc="http://creativecommons.org/ns#"
   xmlns:rdf="http://www.w3.org/1999/02/22-rdf-syntax-ns#"
   xmlns:svg="http://www.w3.org/2000/svg"
   xmlns="http://www.w3.org/2000/svg"
   xmlns:xlink="http://www.w3.org/1999/xlink"
   xmlns:sodipodi="http://sodipodi.sourceforge.net/DTD/sodipodi-0.dtd"
   xmlns:inkscape="http://www.inkscape.org/namespaces/inkscape"
   id="svg8"
   version="1.1"
   viewBox="0 0 133.9798 51.202507"
   height="51.202507mm"
   width="133.9798mm"
   inkscape:version="1.0 (4035a4fb49, 2020-05-01)"
   sodipodi:docname="drawing_ziggurat.svg">
  <defs
     id="defs2">
    <rect
       id="rect209"
       height="-26.137698"
       width="-53.411821"
       y="595.72768"
       x="427.85555" />
    <rect
       x="258.17856"
       y="370.94138"
       width="124.28572"
       height="66.428574"
       id="rect6829" />
    <clipPath
       id="clipPath851"
       clipPathUnits="userSpaceOnUse">
      <path
         id="path849"
         d="M 0,0 H 612 V 792 H 0 Z" />
    </clipPath>
    <rect
       id="rect6829-6"
       height="66.428574"
       width="124.28572"
       y="370.94138"
       x="258.17856" />
    <rect
       id="rect6842"
       height="66.428574"
       width="124.28572"
       y="370.94138"
       x="258.17856" />
    <rect
       id="rect6829-7"
       height="66.428574"
       width="124.28572"
       y="370.94138"
       x="258.17856" />
    <rect
       id="rect6842-2"
       height="66.428574"
       width="124.28572"
       y="370.94138"
       x="258.17856" />
    <rect
       id="rect6829-4"
       height="66.428574"
       width="124.28572"
       y="370.94138"
       x="258.17856" />
    <rect
       id="rect6842-3"
       height="66.428574"
       width="124.28572"
       y="370.94138"
       x="258.17856" />
    <rect
       id="rect6829-2"
       height="66.428574"
       width="124.28572"
       y="370.94138"
       x="258.17856" />
    <rect
       id="rect6842-34"
       height="66.428574"
       width="124.28572"
       y="370.94138"
       x="258.17856" />
    <rect
       id="rect6829-3"
       height="66.428574"
       width="124.28572"
       y="370.94138"
       x="258.17856" />
    <rect
       id="rect6842-9"
       height="66.428574"
       width="124.28572"
       y="370.94138"
       x="258.17856" />
    <rect
       id="rect6829-8"
       height="66.428574"
       width="124.28572"
       y="370.94138"
       x="258.17856" />
    <rect
       id="rect6842-6"
       height="66.428574"
       width="124.28572"
       y="370.94138"
       x="258.17856" />
    <g
       id="g145">
      <symbol
         overflow="visible"
         id="symbol6266">
        <path
           style="stroke:none"
           d=""
           id="path2427" />
      </symbol>
      <symbol
         overflow="visible"
         id="symbol877">
        <path
           style="stroke:none"
           d="M 3.328125,-3.015625 C 3.390625,-3.265625 3.625,-4.1875 4.3125,-4.1875 c 0.046875,0 0.296875,0 0.5,0.125 C 4.53125,-4 4.34375,-3.765625 4.34375,-3.515625 c 0,0.15625 0.109375,0.34375 0.375,0.34375 0.21875,0 0.53125,-0.171875 0.53125,-0.578125 0,-0.515625 -0.578125,-0.65625 -0.921875,-0.65625 -0.578125,0 -0.921875,0.53125 -1.046875,0.75 -0.25,-0.65625 -0.78125,-0.75 -1.078125,-0.75 -1.03125,0 -1.609375,1.28125 -1.609375,1.53125 0,0.109375 0.109375,0.109375 0.125,0.109375 0.078125,0 0.109375,-0.03125 0.125,-0.109375 0.34375,-1.0625 1,-1.3125 1.34375,-1.3125 0.1875,0 0.53125,0.09375 0.53125,0.671875 0,0.3125 -0.171875,0.96875 -0.53125,2.375 -0.15625,0.609375 -0.515625,1.03125 -0.953125,1.03125 -0.0625,0 -0.28125,0 -0.5,-0.125 0.25,-0.0625 0.46875,-0.265625 0.46875,-0.546875 0,-0.265625 -0.21875,-0.34375 -0.359375,-0.34375 -0.3125,0 -0.546875,0.25 -0.546875,0.578125 0,0.453125 0.484375,0.65625 0.921875,0.65625 0.671875,0 1.03125,-0.703125 1.046875,-0.75 0.125,0.359375 0.484375,0.75 1.078125,0.75 1.03125,0 1.59375,-1.28125 1.59375,-1.53125 0,-0.109375 -0.078125,-0.109375 -0.109375,-0.109375 -0.09375,0 -0.109375,0.046875 -0.140625,0.109375 -0.328125,1.078125 -1,1.3125 -1.3125,1.3125 -0.390625,0 -0.546875,-0.3125 -0.546875,-0.65625 0,-0.21875 0.046875,-0.4375 0.15625,-0.875 z m 0,0"
           id="path2048" />
      </symbol>
      <symbol
         overflow="visible"
         id="symbol9133">
        <path
           style="stroke:none"
           d=""
           id="path6924" />
      </symbol>
      <symbol
         overflow="visible"
         id="symbol4126">
        <path
           style="stroke:none"
           d="m 2.328125,-4.4375 c 0,-0.1875 0,-0.1875 -0.203125,-0.1875 -0.453125,0.4375 -1.078125,0.4375 -1.359375,0.4375 v 0.25 c 0.15625,0 0.625,0 1,-0.1875 v 3.546875 c 0,0.234375 0,0.328125 -0.6875,0.328125 H 0.8125 V 0 c 0.125,0 0.984375,-0.03125 1.234375,-0.03125 0.21875,0 1.09375,0.03125 1.25,0.03125 V -0.25 H 3.03125 c -0.703125,0 -0.703125,-0.09375 -0.703125,-0.328125 z m 0,0"
           id="path4820" />
      </symbol>
      <symbol
         overflow="visible"
         id="symbol593">
        <path
           style="stroke:none"
           d=""
           id="path4693" />
      </symbol>
      <symbol
         overflow="visible"
         id="symbol5860">
        <path
           style="stroke:none"
           d="m 6.84375,-3.265625 c 0.15625,0 0.34375,0 0.34375,-0.1875 C 7.1875,-3.65625 7,-3.65625 6.859375,-3.65625 h -5.96875 c -0.140625,0 -0.328125,0 -0.328125,0.203125 0,0.1875 0.1875,0.1875 0.328125,0.1875 z m 0.015625,1.9375 c 0.140625,0 0.328125,0 0.328125,-0.203125 0,-0.1875 -0.1875,-0.1875 -0.34375,-0.1875 H 0.890625 c -0.140625,0 -0.328125,0 -0.328125,0.1875 0,0.203125 0.1875,0.203125 0.328125,0.203125 z m 0,0"
           id="path3164" />
      </symbol>
      <symbol
         overflow="visible"
         id="symbol9434">
        <path
           style="stroke:none"
           d="m 4.578125,-3.1875 c 0,-0.796875 -0.046875,-1.59375 -0.390625,-2.328125 -0.453125,-0.96875 -1.28125,-1.125 -1.6875,-1.125 -0.609375,0 -1.328125,0.265625 -1.75,1.1875 -0.3125,0.6875 -0.359375,1.46875 -0.359375,2.265625 0,0.75 0.03125,1.640625 0.453125,2.40625 0.421875,0.796875 1.15625,1 1.640625,1 0.53125,0 1.296875,-0.203125 1.734375,-1.15625 0.3125,-0.6875 0.359375,-1.46875 0.359375,-2.25 z M 2.484375,0 C 2.09375,0 1.5,-0.25 1.328125,-1.203125 1.21875,-1.796875 1.21875,-2.71875 1.21875,-3.3125 c 0,-0.640625 0,-1.296875 0.078125,-1.828125 0.1875,-1.1875 0.9375,-1.28125 1.1875,-1.28125 0.328125,0 0.984375,0.1875 1.171875,1.171875 0.109375,0.5625 0.109375,1.3125 0.109375,1.9375 0,0.75 0,1.421875 -0.109375,2.0625 C 3.5,-0.296875 2.9375,0 2.484375,0 Z m 0,0"
           id="path9690" />
      </symbol>
    </g>
    <g
       id="g6213">
      <symbol
         overflow="visible"
         id="symbol6279">
        <path
           style="stroke:none"
           d=""
           id="path7805" />
      </symbol>
      <symbol
         overflow="visible"
         id="symbol7235">
        <path
           style="stroke:none"
           d="M 3.328125,-3.015625 C 3.390625,-3.265625 3.625,-4.1875 4.3125,-4.1875 c 0.046875,0 0.296875,0 0.5,0.125 C 4.53125,-4 4.34375,-3.765625 4.34375,-3.515625 c 0,0.15625 0.109375,0.34375 0.375,0.34375 0.21875,0 0.53125,-0.171875 0.53125,-0.578125 0,-0.515625 -0.578125,-0.65625 -0.921875,-0.65625 -0.578125,0 -0.921875,0.53125 -1.046875,0.75 -0.25,-0.65625 -0.78125,-0.75 -1.078125,-0.75 -1.03125,0 -1.609375,1.28125 -1.609375,1.53125 0,0.109375 0.109375,0.109375 0.125,0.109375 0.078125,0 0.109375,-0.03125 0.125,-0.109375 0.34375,-1.0625 1,-1.3125 1.34375,-1.3125 0.1875,0 0.53125,0.09375 0.53125,0.671875 0,0.3125 -0.171875,0.96875 -0.53125,2.375 -0.15625,0.609375 -0.515625,1.03125 -0.953125,1.03125 -0.0625,0 -0.28125,0 -0.5,-0.125 0.25,-0.0625 0.46875,-0.265625 0.46875,-0.546875 0,-0.265625 -0.21875,-0.34375 -0.359375,-0.34375 -0.3125,0 -0.546875,0.25 -0.546875,0.578125 0,0.453125 0.484375,0.65625 0.921875,0.65625 0.671875,0 1.03125,-0.703125 1.046875,-0.75 0.125,0.359375 0.484375,0.75 1.078125,0.75 1.03125,0 1.59375,-1.28125 1.59375,-1.53125 0,-0.109375 -0.078125,-0.109375 -0.109375,-0.109375 -0.09375,0 -0.109375,0.046875 -0.140625,0.109375 -0.328125,1.078125 -1,1.3125 -1.3125,1.3125 -0.390625,0 -0.546875,-0.3125 -0.546875,-0.65625 0,-0.21875 0.046875,-0.4375 0.15625,-0.875 z m 0,0"
           id="path1693" />
      </symbol>
      <symbol
         overflow="visible"
         id="symbol3098">
        <path
           style="stroke:none"
           d=""
           id="path1196" />
      </symbol>
      <symbol
         overflow="visible"
         id="symbol6857">
        <path
           style="stroke:none"
           d="m 2.46875,-2.515625 c 0.546875,-0.265625 0.890625,-0.59375 0.890625,-1.078125 0,-0.671875 -0.703125,-1.03125 -1.375,-1.03125 -0.765625,0 -1.390625,0.5 -1.390625,1.15625 0,0.328125 0.15625,0.5625 0.28125,0.703125 0.125,0.15625 0.171875,0.1875 0.578125,0.421875 C 1.0625,-2.171875 0.375,-1.796875 0.375,-1.0625 c 0,0.765625 0.796875,1.203125 1.59375,1.203125 0.890625,0 1.609375,-0.5625 1.609375,-1.3125 0,-0.46875 -0.265625,-0.859375 -0.671875,-1.09375 -0.09375,-0.0625 -0.328125,-0.1875 -0.4375,-0.25 z m -1.125,-0.65625 c -0.1875,-0.109375 -0.375,-0.296875 -0.375,-0.5625 0,-0.4375 0.5,-0.6875 1,-0.6875 0.546875,0 1.03125,0.34375 1.03125,0.828125 0,0.625 -0.734375,0.9375 -0.734375,0.9375 -0.015625,0 -0.03125,0 -0.078125,-0.03125 z m 0.328125,0.96875 0.96875,0.546875 c 0.171875,0.109375 0.515625,0.3125 0.515625,0.71875 0,0.53125 -0.578125,0.859375 -1.171875,0.859375 -0.640625,0 -1.1875,-0.421875 -1.1875,-0.984375 0,-0.515625 0.375,-0.921875 0.875,-1.140625 z m 0,0"
           id="path1925" />
      </symbol>
    </g>
    <g
       id="g8011">
      <symbol
         overflow="visible"
         id="symbol5365">
        <path
           style="stroke:none"
           d=""
           id="path6364" />
      </symbol>
      <symbol
         overflow="visible"
         id="symbol9502">
        <path
           style="stroke:none"
           d="m 3.65625,-3.984375 h 0.859375 c 0.203125,0 0.296875,0 0.296875,-0.203125 0,-0.109375 -0.09375,-0.109375 -0.265625,-0.109375 H 3.71875 L 3.921875,-5.4375 c 0.046875,-0.203125 0.1875,-0.90625 0.25,-1.03125 0.078125,-0.1875 0.25,-0.34375 0.46875,-0.34375 0.03125,0 0.296875,0 0.484375,0.1875 -0.4375,0.03125 -0.546875,0.390625 -0.546875,0.53125 0,0.234375 0.1875,0.359375 0.375,0.359375 C 5.21875,-5.734375 5.5,-5.96875 5.5,-6.34375 c 0,-0.453125 -0.453125,-0.6875 -0.859375,-0.6875 -0.34375,0 -0.96875,0.1875 -1.265625,1.171875 -0.0625,0.203125 -0.09375,0.3125 -0.328125,1.5625 h -0.6875 c -0.203125,0 -0.3125,0 -0.3125,0.1875 0,0.125 0.09375,0.125 0.28125,0.125 h 0.65625 L 2.25,-0.046875 c -0.1875,0.96875 -0.359375,1.875 -0.875,1.875 -0.046875,0 -0.28125,0 -0.484375,-0.1875 C 1.359375,1.609375 1.453125,1.25 1.453125,1.109375 1.453125,0.875 1.265625,0.75 1.078125,0.75 0.8125,0.75 0.53125,0.984375 0.53125,1.359375 c 0,0.4375 0.4375,0.6875 0.84375,0.6875 0.546875,0 0.953125,-0.59375 1.125,-0.96875 0.328125,-0.625 0.546875,-1.828125 0.5625,-1.90625 z m 0,0"
           id="path5961" />
      </symbol>
      <symbol
         overflow="visible"
         id="symbol3034">
        <path
           style="stroke:none"
           d="M 3.328125,-3.015625 C 3.390625,-3.265625 3.625,-4.1875 4.3125,-4.1875 c 0.046875,0 0.296875,0 0.5,0.125 C 4.53125,-4 4.34375,-3.765625 4.34375,-3.515625 c 0,0.15625 0.109375,0.34375 0.375,0.34375 0.21875,0 0.53125,-0.171875 0.53125,-0.578125 0,-0.515625 -0.578125,-0.65625 -0.921875,-0.65625 -0.578125,0 -0.921875,0.53125 -1.046875,0.75 -0.25,-0.65625 -0.78125,-0.75 -1.078125,-0.75 -1.03125,0 -1.609375,1.28125 -1.609375,1.53125 0,0.109375 0.109375,0.109375 0.125,0.109375 0.078125,0 0.109375,-0.03125 0.125,-0.109375 0.34375,-1.0625 1,-1.3125 1.34375,-1.3125 0.1875,0 0.53125,0.09375 0.53125,0.671875 0,0.3125 -0.171875,0.96875 -0.53125,2.375 -0.15625,0.609375 -0.515625,1.03125 -0.953125,1.03125 -0.0625,0 -0.28125,0 -0.5,-0.125 0.25,-0.0625 0.46875,-0.265625 0.46875,-0.546875 0,-0.265625 -0.21875,-0.34375 -0.359375,-0.34375 -0.3125,0 -0.546875,0.25 -0.546875,0.578125 0,0.453125 0.484375,0.65625 0.921875,0.65625 0.671875,0 1.03125,-0.703125 1.046875,-0.75 0.125,0.359375 0.484375,0.75 1.078125,0.75 1.03125,0 1.59375,-1.28125 1.59375,-1.53125 0,-0.109375 -0.078125,-0.109375 -0.109375,-0.109375 -0.09375,0 -0.109375,0.046875 -0.140625,0.109375 -0.328125,1.078125 -1,1.3125 -1.3125,1.3125 -0.390625,0 -0.546875,-0.3125 -0.546875,-0.65625 0,-0.21875 0.046875,-0.4375 0.15625,-0.875 z m 0,0"
           id="path2070" />
      </symbol>
      <symbol
         overflow="visible"
         id="symbol7814">
        <path
           style="stroke:none"
           d=""
           id="path5391" />
      </symbol>
      <symbol
         overflow="visible"
         id="symbol7713">
        <path
           style="stroke:none"
           d="m 3.296875,2.390625 c 0,-0.03125 0,-0.046875 -0.171875,-0.21875 C 1.890625,0.921875 1.5625,-0.96875 1.5625,-2.5 c 0,-1.734375 0.375,-3.46875 1.609375,-4.703125 0.125,-0.125 0.125,-0.140625 0.125,-0.171875 0,-0.078125 -0.03125,-0.109375 -0.09375,-0.109375 -0.109375,0 -1,0.6875 -1.59375,1.953125 -0.5,1.09375 -0.625,2.203125 -0.625,3.03125 0,0.78125 0.109375,1.984375 0.65625,3.125 C 2.25,1.84375 3.09375,2.5 3.203125,2.5 c 0.0625,0 0.09375,-0.03125 0.09375,-0.109375 z m 0,0"
           id="path6452" />
      </symbol>
      <symbol
         overflow="visible"
         id="symbol780">
        <path
           style="stroke:none"
           d="m 2.875,-2.5 c 0,-0.765625 -0.109375,-1.96875 -0.65625,-3.109375 -0.59375,-1.21875 -1.453125,-1.875 -1.546875,-1.875 -0.0625,0 -0.109375,0.046875 -0.109375,0.109375 0,0.03125 0,0.046875 0.1875,0.234375 0.984375,0.984375 1.546875,2.5625 1.546875,4.640625 0,1.71875 -0.359375,3.46875 -1.59375,4.71875 C 0.5625,2.34375 0.5625,2.359375 0.5625,2.390625 0.5625,2.453125 0.609375,2.5 0.671875,2.5 0.765625,2.5 1.671875,1.8125 2.25,0.546875 2.765625,-0.546875 2.875,-1.65625 2.875,-2.5 Z m 0,0"
           id="path827" />
      </symbol>
    </g>
    <rect
       x="258.17856"
       y="370.94138"
       width="124.28572"
       height="66.428574"
       id="rect6829-4-5" />
    <rect
       x="258.17856"
       y="370.94138"
       width="124.28572"
       height="66.428574"
       id="rect156" />
  </defs>
  <sodipodi:namedview
     id="base"
     pagecolor="#ffffff"
     bordercolor="#666666"
     borderopacity="1.0"
     inkscape:pageopacity="0.0"
     inkscape:pageshadow="2"
     inkscape:zoom="1.4"
     inkscape:cx="205.42023"
     inkscape:cy="79.207447"
     inkscape:document-units="mm"
     inkscape:current-layer="g7527"
     inkscape:document-rotation="0"
     showgrid="false"
     inkscape:window-width="1344"
     inkscape:window-height="729"
     inkscape:window-x="0"
     inkscape:window-y="0"
     inkscape:window-maximized="0"
     inkscape:snap-global="false"
     fit-margin-top="0"
     fit-margin-left="0"
     fit-margin-right="0"
     fit-margin-bottom="0" />
  <metadata
     id="metadata5">
    <rdf:RDF>
      <cc:Work
         rdf:about="">
        <dc:format>image/svg+xml</dc:format>
        <dc:type
           rdf:resource="http://purl.org/dc/dcmitype/StillImage" />
        <dc:title />
      </cc:Work>
    </rdf:RDF>
  </metadata>
  <g
     inkscape:label="Layer 1"
     inkscape:groupmode="layer"
     id="layer1"
     transform="translate(-24.356882,-12.604234)">
    <g
       transform="matrix(0.35277777,0,0,-0.35277777,-46.667456,254.83606)"
       id="g6575"
       style="opacity:1;stroke:#000000;stroke-width:1.56756;stroke-miterlimit:4;stroke-dasharray:none;stroke-opacity:1">
      <g
         aria-label="0124x"
         transform="matrix(1,0,0,-0.5,176.68137,409.93791)"
         id="text5038"
         style="font-variant:normal;font-weight:normal;font-size:7.452px;font-family:'Courier New';-inkscape-font-specification:Courier;writing-mode:lr-tb;fill:#000000;fill-opacity:1;fill-rule:nonzero;stroke:#000000;stroke-width:2.21686;stroke-miterlimit:4;stroke-dasharray:none;stroke-opacity:1" />
      <g
         id="g7527"
         transform="translate(-5.303301,77.276671)">
        <g
           style="stroke:#000000;stroke-width:1.56757;stroke-miterlimit:4;stroke-dasharray:none;stroke-opacity:1"
           transform="matrix(1.4142,0,0,0.7071,85.178573,83.035716)"
           id="g4968">
          <path
             id="path4970"
             style="fill:none;stroke:#ff0000;stroke-width:1.56757;stroke-linecap:round;stroke-linejoin:round;stroke-miterlimit:4;stroke-dasharray:none;stroke-opacity:1"
             d="M 109.288,622.233 H 214.171 V 604.179 H 109.288 m 0,135.766 3.116,-0.229 2.703,-0.549 3.07,-1.054 3.07,-1.512 3.024,-1.879 2.841,-2.108 2.933,-2.52 3.024,-2.978 3.024,-3.345 3.116,-3.712 2.749,-3.528 3.07,-4.261 3.07,-4.536 2.978,-4.537 2.704,-4.307 3.253,-5.269 2.704,-4.582 6.002,-10.264 3.07,-5.407 2.933,-5.132 3.07,-5.315 2.795,-4.903 3.024,-5.177 3.161,-5.316 2.75,-4.536 2.978,-4.811 3.024,-4.811 3.024,-4.582 2.887,-4.261 3.207,-4.583 2.887,-3.94 3.07,-3.986 2.795,-3.483 3.07,-3.62 2.887,-3.207 2.978,-3.162 2.933,-2.932 3.115,-2.887 2.933,-2.566 3.024,-2.474 3.024,-2.245 2.749,-1.925 3.162,-2.062 2.841,-1.695 3.024,-1.65 2.887,-1.466 3.116,-1.42" />
        </g>
        <g
           style="stroke:#000000;stroke-width:1.56757;stroke-miterlimit:4;stroke-dasharray:none;stroke-opacity:1"
           transform="matrix(1.4142,0,0,0.7071,85.178573,83.035716)"
           id="g4972">
          <path
             id="path4974"
             style="fill:none;stroke:#000000;stroke-width:1.56757;stroke-linecap:round;stroke-linejoin:round;stroke-miterlimit:4;stroke-dasharray:none;stroke-opacity:1"
             d="M 109.288,575.404 H 252.157" />
        </g>
        <g
           style="stroke:#000000;stroke-width:1.56757;stroke-miterlimit:4;stroke-dasharray:none;stroke-opacity:1"
           transform="matrix(1.4142,0,0,0.7071,85.178573,83.035716)"
           id="g4992">
          <path
             id="path4994"
             style="fill:none;stroke:#000000;stroke-width:1.56757;stroke-linecap:round;stroke-linejoin:round;stroke-miterlimit:4;stroke-dasharray:none;stroke-opacity:1"
             d="m 109.288,739.945 h 45.088 v -42.017 h -45.088 m 142.869,-122.707 2.199,-0.917 1.924,-0.779 2.154,-0.779 2.199,-0.779 2.154,-0.687 2.016,-0.596 2.062,-0.595 2.153,-0.55 2.154,-0.504 2.199,-0.458 1.971,-0.413 2.199,-0.412 2.2,-0.367 2.107,-0.32 1.925,-0.321 2.291,-0.275 1.924,-0.229 2.245,-0.275 2.017,-0.183 2.199,-0.229 2.062,-0.184 2.199,-0.137 1.97,-0.138 2.154,-0.137 2.245,-0.138 1.971,-0.091 2.061,-0.092 2.2,-0.092 2.108,-0.091 2.061,-0.092 2.292,-0.046 2.061,-0.045 2.2,-0.092 1.97,-0.046 2.154,-0.046 h 2.062 l 2.153,-0.046 2.062,-0.045 h 2.199 l 2.108,-0.046 h 2.154 l 2.108,-0.046 h 4.215 l 2.016,-0.046 h 6.415" />
        </g>
        <g
           style="stroke:#000000;stroke-width:1.56757;stroke-miterlimit:4;stroke-dasharray:none;stroke-opacity:1"
           transform="matrix(1.4142,0,0,0.7071,85.178573,83.035716)"
           id="g4996">
          <path
             id="path4998"
             style="fill:none;stroke:#000000;stroke-width:1.56757;stroke-linecap:round;stroke-linejoin:round;stroke-miterlimit:4;stroke-dasharray:none;stroke-opacity:1"
             d="m 252.157,575.037 2.199,-0.916 1.924,-0.779 2.154,-0.779 2.199,-0.779 2.154,-0.687 2.016,-0.596 2.062,-0.55 2.153,-0.595 2.154,-0.504 2.199,-0.459 1.971,-0.412 2.199,-0.412 2.2,-0.367 2.107,-0.321 1.925,-0.275 2.291,-0.32 1.924,-0.229 2.245,-0.275 2.017,-0.184 2.199,-0.229 2.062,-0.137 2.199,-0.183 1.97,-0.138 2.154,-0.137 2.245,-0.138 1.971,-0.092 2.061,-0.091 2.2,-0.092 2.108,-0.091 2.061,-0.092 2.292,-0.046 2.061,-0.046 2.2,-0.091 h 1.97 l 2.154,-0.046 2.062,-0.046 2.153,-0.046 2.062,-0.046 h 2.199 l 2.108,-0.045 h 16.908" />
        </g>
        <g
           style="stroke:#000000;stroke-width:1.56757;stroke-miterlimit:4;stroke-dasharray:none;stroke-opacity:1"
           transform="matrix(1.4142,0,0,0.7071,85.178573,83.035716)"
           id="g5000">
          <path
             id="path5002"
             style="fill:none;stroke:#000000;stroke-width:1.56757;stroke-linecap:round;stroke-linejoin:round;stroke-miterlimit:4;stroke-dasharray:none;stroke-opacity:1"
             d="m 252.157,574.946 2.199,-0.917 1.924,-0.779 2.154,-0.779 2.199,-0.778 2.154,-0.688 2.016,-0.596 2.062,-0.549 4.307,-1.1 2.199,-0.458 1.971,-0.413 2.199,-0.412 2.2,-0.367 2.107,-0.32 1.925,-0.275 2.291,-0.321 1.924,-0.229 2.245,-0.275 2.017,-0.183 2.199,-0.184 2.062,-0.183 2.199,-0.183 1.97,-0.138 2.154,-0.137 2.245,-0.138 1.971,-0.091 2.061,-0.092 2.2,-0.091 2.108,-0.092 2.061,-0.046 2.292,-0.092 2.061,-0.045 2.2,-0.046 1.97,-0.046 2.154,-0.046 2.062,-0.046 2.153,-0.045 h 23.277" />
        </g>
        <g
           style="stroke:#000000;stroke-width:1.56757;stroke-miterlimit:4;stroke-dasharray:none;stroke-opacity:1"
           transform="matrix(1.4142,0,0,0.7071,85.178573,83.035716)"
           id="g5004">
          <path
             id="path5006"
             style="fill:none;stroke:#ff0000;stroke-width:1.56757;stroke-linecap:round;stroke-linejoin:round;stroke-miterlimit:4;stroke-dasharray:none;stroke-opacity:1"
             d="m 252.157,574.854 2.199,-0.916 1.924,-0.779 2.154,-0.779 2.199,-0.779 2.154,-0.687 2.016,-0.596 2.062,-0.55 4.307,-1.1 2.199,-0.458 1.971,-0.412 2.199,-0.413 2.2,-0.366 2.107,-0.321 1.925,-0.275 2.291,-0.321 1.924,-0.229 2.245,-0.229 2.017,-0.229 2.199,-0.183 2.062,-0.183 2.199,-0.184 1.97,-0.137 2.154,-0.138 2.245,-0.137 1.971,-0.092 2.061,-0.091 2.2,-0.092 2.108,-0.092 2.061,-0.046 2.292,-0.091 2.061,-0.046 2.2,-0.046 1.97,-0.046 2.154,-0.045 h 27.492" />
        </g>
        <g
           style="stroke:#000000;stroke-width:1.56757;stroke-miterlimit:4;stroke-dasharray:none;stroke-opacity:1"
           transform="matrix(1.4142,0,0,0.7071,85.178573,76.339288)"
           id="g5008">
          <path
             id="path5010"
             style="fill:none;stroke:#000000;stroke-width:1.56757;stroke-linecap:round;stroke-linejoin:round;stroke-miterlimit:4;stroke-dasharray:none;stroke-opacity:1"
             d="m 110.42443,613.27046 h 121.058 v -15.67 h -121.058 m 0,109.419 h 62.774 v -30.242 h -62.774 77.162 v -24.559 h -77.162 m 0,-54.618 h 142.869 v -13.288 h -142.869 m 0,67.906 h 90.725 v -20.894 h -90.725" />
        </g>
        <g
           style="stroke:#000000;stroke-width:1.56757;stroke-miterlimit:4;stroke-dasharray:none;stroke-opacity:1"
           transform="matrix(1.4142,0,0,0.7071,85.178573,83.035716)"
           id="g5012">
          <path
             id="path5014"
             style="fill:none;stroke:#000000;stroke-width:1.56757;stroke-linecap:round;stroke-linejoin:round;stroke-miterlimit:4;stroke-dasharray:none;stroke-opacity:1"
             d="M 109.288,560.283 V 743.565" />
        </g>
        <g
           style="stroke:#000000;stroke-width:1.56757;stroke-miterlimit:4;stroke-dasharray:none;stroke-opacity:1"
           transform="matrix(1.4142,0,0,0.7071,85.178573,83.035716)"
           id="g5016">
          <path
             id="path5018"
             style="fill:none;stroke:#000000;stroke-width:1.56757;stroke-linecap:round;stroke-linejoin:round;stroke-miterlimit:4;stroke-dasharray:none;stroke-opacity:1"
             d="m 107.318,563.766 h 3.94 m -3.94,176.179 h 3.94" />
        </g>
        <g
           style="stroke:#000000;stroke-width:1.56757;stroke-miterlimit:4;stroke-dasharray:none;stroke-opacity:1"
           transform="matrix(1.4142,0,0,0.7071,85.178573,83.035716)"
           id="g5020">
          <path
             id="path5022"
             style="fill:none;stroke:#000000;stroke-width:1.56757;stroke-linecap:round;stroke-linejoin:round;stroke-miterlimit:4;stroke-dasharray:none;stroke-opacity:1"
             d="M 109.288,563.766 H 353.649" />
        </g>
        <g
           style="stroke:#000000;stroke-width:1.56757;stroke-miterlimit:4;stroke-dasharray:none;stroke-opacity:1"
           transform="matrix(1.4142,0,0,0.7071,115.86196,83.035716)"
           id="g5024">
          <path
             id="path7422"
             d="m 231.45473,567.73949 v -7.57621"
             style="fill:none;stroke:#000000;stroke-width:0.622847px;stroke-linecap:butt;stroke-linejoin:miter;stroke-opacity:1" />
        </g>
        <g
           inkscape:label=""
           transform="matrix(1.3863682,0,0,-1.4878404,91.921016,590.53734)"
           id="g7006"
           style="font-variant:normal;font-weight:normal;font-size:7.452px;font-family:'Courier New';-inkscape-font-specification:Courier;writing-mode:lr-tb;opacity:1;fill:#000000;fill-opacity:1;fill-rule:nonzero;stroke:#000000;stroke-width:2.21686;stroke-miterlimit:4;stroke-dasharray:none;stroke-opacity:1">
          <g
             id="g4355">
            <g
               id="g6493"
               style="fill:#000000;fill-opacity:1">
              <use
                 height="100%"
                 width="100%"
                 id="use1449"
                 y="81.962997"
                 x="91.925003"
                 xlink:href="#symbol877" />
            </g>
            <g
               id="g4191"
               style="fill:#000000;fill-opacity:1">
              <use
                 height="100%"
                 width="100%"
                 id="use6621"
                 y="83.457001"
                 x="97.619003"
                 xlink:href="#symbol4126" />
            </g>
            <g
               id="g9193"
               style="fill:#000000;fill-opacity:1">
              <use
                 height="100%"
                 width="100%"
                 id="use4647"
                 y="81.962997"
                 x="104.856"
                 xlink:href="#symbol5860" />
            </g>
            <g
               id="g5940"
               style="fill:#000000;fill-opacity:1">
              <use
                 height="100%"
                 width="100%"
                 id="use926"
                 y="81.962997"
                 x="115.37451"
                 xlink:href="#symbol9434" />
            </g>
          </g>
        </g>
        <g
           inkscape:label=""
           transform="matrix(1.4775036,0,0,-1.4754968,301.55205,589.64434)"
           id="g7172"
           style="font-variant:normal;font-weight:normal;font-size:7.452px;font-family:'Courier New';-inkscape-font-specification:Courier;writing-mode:lr-tb;opacity:1;fill:#000000;fill-opacity:1;fill-rule:nonzero;stroke:#000000;stroke-width:2.21686;stroke-miterlimit:4;stroke-dasharray:none;stroke-opacity:1">
          <g
             id="g676">
            <g
               id="g7029"
               style="fill:#000000;fill-opacity:1">
              <use
                 height="100%"
                 width="100%"
                 id="use7945"
                 y="81.962997"
                 x="91.925003"
                 xlink:href="#symbol7235" />
            </g>
            <g
               id="g3425"
               style="fill:#000000;fill-opacity:1">
              <use
                 height="100%"
                 width="100%"
                 id="use6264"
                 y="83.457001"
                 x="97.619003"
                 xlink:href="#symbol6857" />
            </g>
          </g>
        </g>
        <g
           inkscape:label=""
           transform="matrix(1.4798763,0,0,-1.4657948,71.951177,657.9718)"
           id="g7344"
           style="font-variant:normal;font-weight:normal;font-size:7.452px;font-family:'Courier New';-inkscape-font-specification:Courier;writing-mode:lr-tb;opacity:1;fill:#000000;fill-opacity:1;fill-rule:nonzero;stroke:#000000;stroke-width:2.21686;stroke-miterlimit:4;stroke-dasharray:none;stroke-opacity:1">
          <g
             id="g133">
            <g
               id="g3486"
               style="fill:#000000;fill-opacity:1">
              <use
                 height="100%"
                 width="100%"
                 id="use819"
                 y="81.962997"
                 x="91.925003"
                 xlink:href="#symbol9502" />
            </g>
            <g
               id="g8607"
               style="fill:#000000;fill-opacity:1">
              <use
                 height="100%"
                 width="100%"
                 id="use6121"
                 y="81.962997"
                 x="97.875"
                 xlink:href="#symbol7713" />
            </g>
            <g
               id="g3858"
               style="fill:#000000;fill-opacity:1">
              <use
                 height="100%"
                 width="100%"
                 id="use1675"
                 y="81.962997"
                 x="101.75"
                 xlink:href="#symbol3034" />
            </g>
            <g
               id="g8962"
               style="fill:#000000;fill-opacity:1">
              <use
                 height="100%"
                 width="100%"
                 id="use6416"
                 y="81.962997"
                 x="107.443"
                 xlink:href="#symbol780" />
            </g>
          </g>
        </g>
        <path
           id="path7424"
           d="m 211.66758,-200.98809 v -26.1301 l -18.36609,0.3733"
           style="font-variant:normal;font-weight:normal;font-size:7.452px;font-family:'Courier New';-inkscape-font-specification:Courier;writing-mode:lr-tb;opacity:1;fill:none;fill-opacity:1;fill-rule:nonzero;stroke:#000000;stroke-width:1.46747;stroke-linecap:butt;stroke-linejoin:miter;stroke-miterlimit:4;stroke-dasharray:none;stroke-opacity:1"
           transform="matrix(1,0,0,-0.5,176.68137,409.93791)" />
        <path
           id="path7426"
           d="m 210.54159,-201.35762 v -25.00128 l -17.04632,0.37881"
           style="font-variant:normal;font-weight:normal;font-size:7.452px;font-family:'Courier New';-inkscape-font-specification:Courier;writing-mode:lr-tb;opacity:1;fill:none;fill-opacity:1;fill-rule:nonzero;stroke:#000000;stroke-width:1.06066px;stroke-linecap:butt;stroke-linejoin:miter;stroke-miterlimit:4;stroke-dasharray:none;stroke-opacity:1"
           transform="matrix(1,0,0,-0.5,176.68137,409.93791)" />
        <text
           transform="matrix(0.62573099,0,0,-0.68156157,91.894217,853.31005)"
           style="font-style:normal;font-weight:normal;font-size:30px;line-height:1.25;font-family:sans-serif;white-space:pre;shape-inside:url(#rect6829);fill:#000000;fill-opacity:1;stroke:none;"
           id="text6827"
           xml:space="preserve"><tspan
             x="258.17773"
             y="397.48438"><tspan>A</tspan></tspan></text>
        <text
           xml:space="preserve"
           id="text6827-0"
           style="font-style:normal;font-weight:normal;font-size:30px;line-height:1.25;font-family:sans-serif;white-space:pre;shape-inside:url(#rect6829-6);opacity:1;fill:#000000;fill-opacity:1;stroke:none;stroke-width:1.56756;stroke-miterlimit:4;stroke-dasharray:none;stroke-opacity:1;"
           transform="matrix(0.62573099,0,0,-0.68156157,114.85543,829.39854)"><tspan
             x="258.17773"
             y="397.48438"><tspan>A</tspan></tspan></text>
        <text
           xml:space="preserve"
           id="text6827-1"
           style="font-style:normal;font-weight:normal;font-size:30px;line-height:1.25;font-family:sans-serif;white-space:pre;shape-inside:url(#rect6829-7);opacity:1;fill:#000000;fill-opacity:1;stroke:none;stroke-width:1.56756;stroke-miterlimit:4;stroke-dasharray:none;stroke-opacity:1;"
           transform="matrix(0.46532998,0,0,-0.51009472,177.19785,744.10029)"><tspan
             x="258.17773"
             y="397.48438"><tspan>A</tspan></tspan></text>
        <text
           xml:space="preserve"
           id="text6827-4"
           style="font-style:normal;font-weight:normal;font-size:30px;line-height:1.25;font-family:sans-serif;white-space:pre;shape-inside:url(#rect6829-4);opacity:1;fill:#000000;fill-opacity:1;stroke:none;stroke-width:1.56756;stroke-miterlimit:4;stroke-dasharray:none;stroke-opacity:1;"
           transform="matrix(0.41186298,0,0,-0.41211366,225.83579,675.15435)"><tspan
             x="258.17773"
             y="397.48438"><tspan>A</tspan></tspan></text>
        <text
           xml:space="preserve"
           id="text6827-5"
           style="font-style:normal;font-weight:normal;font-size:30px;line-height:1.25;font-family:sans-serif;white-space:pre;shape-inside:url(#rect6829-2);opacity:1;fill:#000000;fill-opacity:1;stroke:none;stroke-width:1.56756;stroke-miterlimit:4;stroke-dasharray:none;stroke-opacity:1;"
           transform="matrix(0.43859648,0,0,-0.43660893,202.32039,699.89083)"><tspan
             x="258.17773"
             y="397.48438"><tspan>A</tspan></tspan></text>
        <text
           xml:space="preserve"
           id="text6827-9"
           style="font-style:normal;font-weight:normal;font-size:30px;line-height:1.25;font-family:sans-serif;white-space:pre;shape-inside:url(#rect6829-3);opacity:1;fill:#000000;fill-opacity:1;stroke:none;stroke-width:1.56756;stroke-miterlimit:4;stroke-dasharray:none;stroke-opacity:1;"
           transform="matrix(0.33166248,0,0,-0.3876184,269.59628,654.16786)"><tspan
             x="258.17773"
             y="397.48438"><tspan>A</tspan></tspan></text>
        <text
           xml:space="preserve"
           id="text6827-16"
           style="font-style:normal;font-weight:normal;font-size:30px;line-height:1.25;font-family:sans-serif;white-space:pre;shape-inside:url(#rect6829-8);opacity:1;fill:#000000;fill-opacity:1;stroke:none;stroke-width:1.56756;stroke-miterlimit:4;stroke-dasharray:none;stroke-opacity:1;"
           transform="matrix(0.38512948,0,0,-0.28963734,279.88691,606.6505)"><tspan
             x="258.17773"
             y="397.48438"><tspan>A</tspan></tspan></text>
        <text
           transform="matrix(0.35839598,0,0,-0.28963734,311.8559,597.306)"
           style="font-style:normal;font-weight:normal;font-size:30px;line-height:1.25;font-family:sans-serif;white-space:pre;shape-inside:url(#rect6829-4-5);opacity:1;fill:#000000;fill-opacity:1;stroke:none;stroke-width:1.56756;stroke-miterlimit:4;stroke-dasharray:none;stroke-opacity:1;"
           id="text6827-4-1"
           xml:space="preserve"><tspan
             x="258.17773"
             y="397.48438"><tspan>A</tspan></tspan></text>
        <path
           id="path205"
           d="M 461.19059,572.62044 427.47675,484.73717"
           style="fill:none;stroke:#000000;stroke-width:0.75px;stroke-linecap:butt;stroke-linejoin:miter;stroke-opacity:1" />
        <text
           style="font-style:normal;font-weight:normal;font-size:12px;line-height:1.25;font-family:sans-serif;white-space:pre;shape-inside:url(#rect209);fill:#000000;fill-opacity:1;stroke:none;"
           id="text207"
           xml:space="preserve" />
        <g
           style="font-style:normal;font-weight:normal;font-size:17px;line-height:1.25;font-family:sans-serif;fill:#000000;fill-opacity:1;stroke:none;stroke-width:1.17567"
           id="text215"
           transform="matrix(1,0,0,-1,-0.75761443,-2.2728433)"
           aria-label="Spodní lišta">
          <path
             id="path217"
             style="font-size:17px;stroke-width:1.17567"
             d="m 421.80093,-592.18292 v 1.63525 q -0.95459,-0.45654 -1.80127,-0.68066 -0.84668,-0.22412 -1.63525,-0.22412 -1.36963,0 -2.1167,0.53125 -0.73877,0.53125 -0.73877,1.51074 0,0.82178 0.48975,1.24512 0.49804,0.41503 1.87597,0.67236 l 1.0127,0.20752 q 1.87598,0.35693 2.76416,1.26172 0.89648,0.89648 0.89648,2.40722 0,1.80127 -1.21191,2.73096 -1.20361,0.92969 -3.53613,0.92969 -0.87989,0 -1.87598,-0.19922 -0.98779,-0.19922 -2.05029,-0.58936 v -1.72656 q 1.02099,0.57276 2.00049,0.86328 0.97949,0.29053 1.92578,0.29053 1.43603,0 2.21631,-0.56445 0.78027,-0.56446 0.78027,-1.61035 0,-0.91309 -0.56445,-1.42774 -0.55616,-0.51465 -1.83448,-0.77197 l -1.02099,-0.19922 q -1.87598,-0.37354 -2.71436,-1.17041 -0.83838,-0.79688 -0.83838,-2.21631 0,-1.64355 1.15381,-2.58984 1.16211,-0.94629 3.1958,-0.94629 0.87158,0 1.77637,0.15771 0.90478,0.15772 1.85107,0.47315 z" />
          <path
             id="path219"
             style="font-size:17px;stroke-width:1.17567"
             d="m 426.57388,-581.59113 v 4.93067 h -1.53564 v -12.83301 h 1.53564 v 1.41113 q 0.48145,-0.83007 1.21192,-1.22851 0.73877,-0.40674 1.75976,-0.40674 1.69336,0 2.74756,1.34473 1.0625,1.34472 1.0625,3.53613 0,2.19141 -1.0625,3.53613 -1.0542,1.34473 -2.74756,1.34473 -1.02099,0 -1.75976,-0.39844 -0.73047,-0.40674 -1.21192,-1.23682 z m 5.19629,-3.2456 q 0,-1.68506 -0.69726,-2.63965 -0.68897,-0.96289 -1.90088,-0.96289 -1.21192,0 -1.90918,0.96289 -0.68897,0.95459 -0.68897,2.63965 0,1.68506 0.68897,2.64795 0.69726,0.95459 1.90918,0.95459 1.21191,0 1.90088,-0.95459 0.69726,-0.96289 0.69726,-2.64795 z" />
          <path
             id="path221"
             style="font-size:17px;stroke-width:1.17567"
             d="m 439.4899,-588.42267 q -1.22852,0 -1.94238,0.96289 -0.71387,0.95459 -0.71387,2.62305 0,1.66846 0.70557,2.63135 0.71386,0.95459 1.95068,0.95459 1.22021,0 1.93408,-0.96289 0.71387,-0.96289 0.71387,-2.62305 0,-1.65186 -0.71387,-2.61475 -0.71387,-0.97119 -1.93408,-0.97119 z m 0,-1.29492 q 1.99219,0 3.12939,1.29492 1.13721,1.29492 1.13721,3.58594 0,2.28271 -1.13721,3.58594 -1.1372,1.29492 -3.12939,1.29492 -2.00049,0 -3.1377,-1.29492 -1.1289,-1.30323 -1.1289,-3.58594 0,-2.29102 1.1289,-3.58594 1.13721,-1.29492 3.1377,-1.29492 z" />
          <path
             id="path223"
             style="font-size:17px;stroke-width:1.17567"
             d="m 452.39761,-588.08234 v -5.03027 h 1.52735 v 12.91602 h -1.52735 v -1.39454 q -0.48144,0.83008 -1.22021,1.23682 -0.73047,0.39844 -1.75977,0.39844 -1.68506,0 -2.74756,-1.34473 -1.05419,-1.34472 -1.05419,-3.53613 0,-2.19141 1.05419,-3.53613 1.0625,-1.34473 2.74756,-1.34473 1.0293,0 1.75977,0.40674 0.73877,0.39844 1.22021,1.22851 z m -5.20459,3.24561 q 0,1.68506 0.68897,2.64795 0.69726,0.95459 1.90918,0.95459 1.21191,0 1.90918,-0.95459 0.69726,-0.96289 0.69726,-2.64795 0,-1.68506 -0.69726,-2.63965 -0.69727,-0.96289 -1.90918,-0.96289 -1.21192,0 -1.90918,0.96289 -0.68897,0.95459 -0.68897,2.63965 z" />
          <path
             id="path225"
             style="font-size:17px;stroke-width:1.17567"
             d="m 464.79898,-585.80792 v 5.61133 h -1.52734 v -5.56153 q 0,-1.31982 -0.51465,-1.97558 -0.51465,-0.65577 -1.54395,-0.65577 -1.23681,0 -1.95068,0.78858 -0.71387,0.78857 -0.71387,2.1499 v 5.2544 h -1.53564 v -9.29688 h 1.53564 v 1.44434 q 0.54785,-0.83838 1.28662,-1.25342 0.74707,-0.41504 1.71827,-0.41504 1.60205,0 2.42382,0.99609 0.82178,0.9878 0.82178,2.91358 z" />
          <path
             id="path227"
             style="font-size:17px;stroke-width:1.17567"
             d="m 469.77945,-593.79327 h 1.65185 l -2.70605,3.12109 h -1.27002 z m -1.91748,4.2998 h 1.52734 v 9.29688 h -1.52734 z m 0.76367,-0.22412 z" />
          <path
             id="path229"
             style="font-size:17px;stroke-width:1.17567"
             d="m 477.98892,-593.11261 h 1.52735 v 12.91602 h -1.52735 z" />
          <path
             id="path231"
             style="font-size:17px;stroke-width:1.17567"
             d="m 482.70377,-589.49347 h 1.52734 v 9.29688 h -1.52734 z m 0,-3.61914 h 1.52734 v 1.93408 h -1.52734 z" />
          <path
             id="path233"
             style="font-size:17px;stroke-width:1.17567"
             d="m 493.34537,-589.21954 v 1.44433 q -0.64746,-0.33203 -1.34473,-0.49804 -0.69726,-0.16602 -1.44434,-0.16602 -1.1372,0 -1.70996,0.34863 -0.56445,0.34864 -0.56445,1.0459 0,0.53125 0.40674,0.83838 0.40674,0.29883 1.63525,0.57275 l 0.52295,0.11621 q 1.62696,0.34864 2.30762,0.9878 0.68896,0.63086 0.68896,1.76806 0,1.29493 -1.02929,2.0503 -1.021,0.75537 -2.81397,0.75537 -0.74707,0 -1.56054,-0.14942 -0.80518,-0.14111 -1.70166,-0.43164 v -1.57714 q 0.84668,0.43994 1.66845,0.66406 0.82178,0.21582 1.62696,0.21582 1.0791,0 1.66015,-0.36524 0.58106,-0.37353 0.58106,-1.04589 0,-0.62256 -0.42334,-0.95459 -0.41504,-0.33204 -1.83448,-0.63916 l -0.53125,-0.12452 q -1.41943,-0.29882 -2.05029,-0.91308 -0.63086,-0.62256 -0.63086,-1.70166 0,-1.31153 0.92969,-2.02539 0.92969,-0.71387 2.63965,-0.71387 0.84668,0 1.59375,0.12451 0.74707,0.12451 1.37793,0.37354 z m -3.53614,-1.45264 -2.03369,-3.12109 h 1.15381 l 1.49414,2.03369 1.49414,-2.03369 h 1.15381 l -2.03369,3.12109 z m 0.58106,0.95459 z" />
          <path
             id="path235"
             style="font-size:17px;stroke-width:1.17567"
             d="m 497.79459,-592.13312 v 2.63965 h 3.14599 v 1.18701 h -3.14599 v 5.04688 q 0,1.1372 0.30713,1.46093 0.31542,0.32374 1.27001,0.32374 h 1.56885 v 1.27832 h -1.56885 q -1.76806,0 -2.44043,-0.65577 -0.67236,-0.66406 -0.67236,-2.40722 v -5.04688 h -1.1206 v -1.18701 h 1.1206 v -2.63965 z" />
          <path
             id="path237"
             style="font-size:17px;stroke-width:1.17567"
             d="m 507.18277,-584.86993 q -1.85107,0 -2.56494,0.42334 -0.71387,0.42334 -0.71387,1.44433 0,0.81348 0.53125,1.29492 0.53955,0.47315 1.46094,0.47315 1.27002,0 2.03369,-0.89649 0.77197,-0.90478 0.77197,-2.39892 v -0.34033 z m 3.04639,-0.63086 v 5.3042 h -1.52735 v -1.41114 q -0.52295,0.84668 -1.30322,1.25342 -0.78027,0.39844 -1.90918,0.39844 -1.42773,0 -2.27441,-0.79688 -0.83838,-0.80517 -0.83838,-2.1499 0,-1.56885 1.0459,-2.36572 1.0542,-0.79688 3.13769,-0.79688 h 2.1416 v -0.14941 q 0,-1.0542 -0.69726,-1.62695 -0.68897,-0.58106 -1.94239,-0.58106 -0.79687,0 -1.55224,0.19092 -0.75537,0.19092 -1.45264,0.57275 v -1.41113 q 0.83838,-0.32373 1.62695,-0.48144 0.78858,-0.16602 1.53565,-0.16602 2.01709,0 3.01318,1.0459 0.9961,1.0459 0.9961,3.1709 z" />
        </g>
        <path
           id="path240"
           d="m 240.89409,523.29626 128.3511,-0.0952"
           style="fill:#000000;fill-opacity:1;stroke:#000000;stroke-width:1.69008;stroke-linecap:butt;stroke-linejoin:miter;stroke-miterlimit:4;stroke-dasharray:none;stroke-opacity:1" />
        <path
           style="opacity:1;fill:#000000;fill-opacity:1;stroke:#000000;stroke-width:1.18568;stroke-linecap:butt;stroke-linejoin:miter;stroke-miterlimit:4;stroke-dasharray:none;stroke-opacity:1"
           d="m 241.01848,510.54593 146.85232,-0.0409"
           id="path240-4" />
      </g>
    </g>
  </g>
</svg>
